<svg width="1013" height="193" viewBox="0 0 1013 193" fill="none" xmlns="http://www.w3.org/2000/svg">
<path d="M3.51562 174.016L6.46875 163.047H32.9062C38.1562 162.859 42 160.797 44.4375 156.859C45.1875 155.547 45.5625 154.375 45.5625 153.344V143.219C41.7188 145.938 37.875 147.391 34.0312 147.578V136.75C38.1562 136.75 41.4375 135.016 43.875 131.547C45 129.953 45.5625 128.359 45.5625 126.766V92.3125C45.5625 88.75 43.5938 85.9375 39.6562 83.875C37.7812 82.9375 35.9062 82.4688 34.0312 82.4688V71.3594C38.25 71.3594 41.9531 72.6719 45.1406 75.2969C45.3281 75.3906 45.4688 75.4844 45.5625 75.5781V71.3594H56.9531V153.344C56.9531 157.375 55.125 161.547 51.4688 165.859C46.875 171.203 41.2031 173.922 34.4531 174.016H3.51562ZM4.92188 126.906V91.75C5.01562 87.3438 6.98438 83.0312 10.8281 78.8125C15.4219 73.9375 21.0938 71.4531 27.8438 71.3594V82.4688C23.25 82.4688 19.7812 84.4375 17.4375 88.375C16.5938 89.7812 16.1719 91.0469 16.1719 92.1719V126.766C16.1719 129.578 17.625 132.062 20.5312 134.219C22.6875 135.719 25.125 136.469 27.8438 136.469V147.578C19.2188 147.484 12.6562 143.828 8.15625 136.609C6 133.141 4.92188 129.906 4.92188 126.906ZM67.7812 127.188V92.4531C67.7812 88.0469 69.75 83.7344 73.6875 79.5156C78.5625 74.4531 84.6562 71.9219 91.9688 71.9219V83.3125C86.4375 83.3125 82.5938 85.6094 80.4375 90.2031C79.7812 91.6094 79.4531 93.0156 79.4531 94.4219V125.359C79.4531 128.828 81.0469 131.781 84.2344 134.219C86.4844 135.906 89.0625 136.75 91.9688 136.75V148.141C83.0625 148.141 76.1719 144.531 71.2969 137.312C68.9531 133.75 67.7812 130.375 67.7812 127.188ZM98.0156 148.141V136.75C102.984 136.75 106.547 134.5 108.703 130C109.453 128.5 109.828 127.047 109.828 125.641V94.4219C109.828 90.5781 108.188 87.5312 104.906 85.2812C102.844 83.9688 100.5 83.3125 97.875 83.3125V71.9219C106.5 71.9219 113.156 75.4375 117.844 82.4688C120.188 85.9375 121.359 89.2656 121.359 92.4531V127.188C121.359 131.781 119.391 136.234 115.453 140.547C110.859 145.516 105.047 148.047 98.0156 148.141ZM133.031 112.281V101.031H177.469V112.281H133.031ZM187.875 127.188V92.4531C187.969 87.3906 190.266 82.7031 194.766 78.3906C199.172 74.1719 204.328 72.0625 210.234 72.0625H221.344V83.4531H210.375C206.531 83.4531 203.391 85.1875 200.953 88.6562C199.922 90.25 199.406 91.75 199.406 93.1562V126.906C199.406 129.906 201.094 132.484 204.469 134.641C206.438 135.953 208.453 136.609 210.516 136.609H221.344V148H210.656C202.312 148 195.844 144.391 191.25 137.172C189 133.609 187.875 130.281 187.875 127.188ZM228.094 148L228.234 48.5781H240.328V148H228.094ZM250.734 130.281C250.734 135.438 253.266 139.797 258.328 143.359C262.641 146.359 267.703 147.859 273.516 147.859V136.891C265.359 136.703 261.234 133.609 261.141 127.609V123.812C261.234 121.75 261.797 120.25 262.828 119.312C263.953 118.281 268.969 116.688 277.875 114.531C284.812 112.844 289.5 111.344 291.938 110.031V126.203C291.938 132.297 288.984 135.812 283.078 136.75C282.141 136.844 281.25 136.891 280.406 136.891V147.859C286.969 147.766 292.125 146.125 295.875 142.938C298.781 146.219 302.578 147.859 307.266 147.859V136.75C304.828 136.562 303.562 135.016 303.469 132.109V93.5781C303.469 87.5781 301.172 82.3281 296.578 77.8281C292.266 73.7031 286.875 71.6406 280.406 71.6406V82.4688C284.812 82.4688 288.094 84.25 290.25 87.8125C291.375 89.6875 291.938 91.75 291.938 94V96.6719C291.938 99.0156 286.359 101.734 275.203 104.828C265.172 107.641 259.406 109.422 257.906 110.172C253.125 112.984 250.734 117.438 250.734 123.531V130.281ZM251.719 90.7656L262.125 94.7031C262.125 89.4531 264.281 85.7969 268.594 83.7344C270.188 82.9844 271.875 82.6094 273.656 82.6094V71.6406C267.188 71.6406 261.656 73.9844 257.062 78.6719C253.5 82.2344 251.719 86.2656 251.719 90.7656ZM314.297 84.1562V72.7656H323.578V48.4375H335.531V72.7656H344.531V84.2969H335.531V124.656C335.531 131.312 338.25 135.016 343.688 135.766C344.719 135.953 345.75 136.047 346.781 136.047H348.75L351.422 148H346.359C334.828 147.906 327.75 143.594 325.125 135.062C324.188 131.875 323.719 127.938 323.719 123.25L323.578 84.1562H314.297ZM356.766 130.281C356.766 135.438 359.297 139.797 364.359 143.359C368.672 146.359 373.734 147.859 379.547 147.859V136.891C371.391 136.703 367.266 133.609 367.172 127.609V123.812C367.266 121.75 367.828 120.25 368.859 119.312C369.984 118.281 375 116.688 383.906 114.531C390.844 112.844 395.531 111.344 397.969 110.031V126.203C397.969 132.297 395.016 135.812 389.109 136.75C388.172 136.844 387.281 136.891 386.438 136.891V147.859C393 147.766 398.156 146.125 401.906 142.938C404.812 146.219 408.609 147.859 413.297 147.859V136.75C410.859 136.562 409.594 135.016 409.5 132.109V93.5781C409.5 87.5781 407.203 82.3281 402.609 77.8281C398.297 73.7031 392.906 71.6406 386.438 71.6406V82.4688C390.844 82.4688 394.125 84.25 396.281 87.8125C397.406 89.6875 397.969 91.75 397.969 94V96.6719C397.969 99.0156 392.391 101.734 381.234 104.828C371.203 107.641 365.438 109.422 363.938 110.172C359.156 112.984 356.766 117.438 356.766 123.531V130.281ZM357.75 90.7656L368.156 94.7031C368.156 89.4531 370.312 85.7969 374.625 83.7344C376.219 82.9844 377.906 82.6094 379.688 82.6094V71.6406C373.219 71.6406 367.688 73.9844 363.094 78.6719C359.531 82.2344 357.75 86.2656 357.75 90.7656ZM424.266 112.281V101.031H468.703V112.281H424.266ZM477.703 128.031L488.812 125.922C488.812 130.141 491.016 133.469 495.422 135.906C497.578 136.938 499.641 137.5 501.609 137.594V148.703C492.516 148.703 485.719 145.422 481.219 138.859C478.875 135.391 477.703 131.781 477.703 128.031ZM478.406 93.4375C478.406 84.9062 482.297 78.5781 490.078 74.4531C493.828 72.4844 497.578 71.5 501.328 71.5V82.4688C497.016 82.4688 493.688 84.25 491.344 87.8125C490.125 89.5938 489.516 91.4688 489.516 93.4375C489.516 96.4375 491.859 98.875 496.547 100.75C500.109 102.25 507 104.219 517.219 106.656C523.594 107.969 528.141 111.109 530.859 116.078C532.266 118.703 532.969 121.656 532.969 124.938C532.969 133.938 529.359 140.594 522.141 144.906C517.922 147.438 513.094 148.703 507.656 148.703V137.594C511.969 137.594 515.578 136.094 518.484 133.094C520.547 130.938 521.578 128.406 521.578 125.5C521.578 121.75 517.875 118.75 510.469 116.5C508.594 115.938 505.594 115.141 501.469 114.109C497.062 113.078 493.875 112.234 491.906 111.578C484.781 108.766 480.469 104.5 478.969 98.7812C478.594 97.0938 478.406 95.3125 478.406 93.4375ZM507.516 82.6094V71.5C515.578 71.5 522.094 74.5 527.062 80.5C530.156 84.3438 531.703 88.375 531.703 92.5938L520.594 94.4219C520.594 89.2656 517.781 85.6562 512.156 83.5938C510.469 82.9375 508.922 82.6094 507.516 82.6094ZM538.172 84.1562V72.7656H547.453V48.4375H559.406V72.7656H568.406V84.2969H559.406V124.656C559.406 131.312 562.125 135.016 567.562 135.766C568.594 135.953 569.625 136.047 570.656 136.047H572.625L575.297 148H570.234C558.703 147.906 551.625 143.594 549 135.062C548.062 131.875 547.594 127.938 547.594 123.25L547.453 84.1562H538.172ZM581.906 148V71.9219H593.859V82.3281C596.297 78.2031 599.953 75.1562 604.828 73.1875C607.453 72.1562 610.031 71.6406 612.562 71.6406H615.094L612.281 83.1719C607.125 83.2656 602.531 86.0312 598.5 91.4688C595.406 95.7812 593.859 100.234 593.859 104.828V148H581.906ZM622.547 127.75V72.0625H634.5V126.344C634.5 129.719 636.188 132.531 639.562 134.781C641.812 136.188 644.297 136.891 647.016 136.891V148.703C638.016 148.703 631.078 145.188 626.203 138.156C623.766 134.594 622.547 131.125 622.547 127.75ZM653.203 148.703V136.891C658.266 136.891 661.969 134.875 664.312 130.844C665.156 129.344 665.578 127.844 665.578 126.344V72.0625H677.531V127.75C677.531 132.156 675.516 136.516 671.484 140.828C666.609 145.984 660.516 148.609 653.203 148.703ZM688.359 127.188C688.359 132.156 690.281 136.703 694.125 140.828C698.625 145.609 704.578 148 711.984 148V136.75C706.922 136.75 703.312 134.875 701.156 131.125C700.406 129.812 700.031 128.5 700.031 127.188V93.0156C700.031 90.0156 701.578 87.4375 704.672 85.2812C706.828 83.875 709.266 83.1719 711.984 83.1719V71.9219C702.984 71.9219 696.234 75.4375 691.734 82.4688C689.484 85.9375 688.359 89.3594 688.359 92.7344V127.188ZM718.312 83.3125C722.906 83.3125 726.094 85.2812 727.875 89.2188C728.531 90.7188 728.906 92.2656 729 93.8594V97.2344L739.969 93.0156C739.969 86.1719 737.156 80.5938 731.531 76.2812C727.594 73.375 723.188 71.9219 718.312 71.9219V83.3125ZM718.312 148.141C724.969 148.234 730.781 145.703 735.75 140.547C739.688 136.328 741.656 131.734 741.656 126.766L730.688 122.688C730.688 122.781 730.688 122.875 730.688 122.969C730.688 123.062 730.688 123.25 730.688 123.531C730.688 123.812 730.688 124.047 730.688 124.234C730.688 124.422 730.688 124.656 730.688 124.938C730.688 125.125 730.688 125.312 730.688 125.5L730.547 125.781C730.078 131.031 727.453 134.453 722.672 136.047C721.266 136.516 719.812 136.75 718.312 136.75V148.141ZM747.562 84.1562V72.7656H756.844V48.4375H768.797V72.7656H777.797V84.2969H768.797V124.656C768.797 131.312 771.516 135.016 776.953 135.766C777.984 135.953 779.016 136.047 780.047 136.047H782.016L784.688 148H779.625C768.094 147.906 761.016 143.594 758.391 135.062C757.453 131.875 756.984 127.938 756.984 123.25L756.844 84.1562H747.562ZM790.734 127.75V72.0625H802.688V126.344C802.688 129.719 804.375 132.531 807.75 134.781C810 136.188 812.484 136.891 815.203 136.891V148.703C806.203 148.703 799.266 145.188 794.391 138.156C791.953 134.594 790.734 131.125 790.734 127.75ZM821.391 148.703V136.891C826.453 136.891 830.156 134.875 832.5 130.844C833.344 129.344 833.766 127.844 833.766 126.344V72.0625H845.719V127.75C845.719 132.156 843.703 136.516 839.672 140.828C834.797 145.984 828.703 148.609 821.391 148.703ZM856.969 148V71.9219H868.922V82.3281C871.359 78.2031 875.016 75.1562 879.891 73.1875C882.516 72.1562 885.094 71.6406 887.625 71.6406H890.156L887.344 83.1719C882.188 83.2656 877.594 86.0312 873.562 91.4688C870.469 95.7812 868.922 100.234 868.922 104.828V148H856.969ZM897.75 127.188V92.3125C897.844 88 899.906 83.7344 903.938 79.5156C908.812 74.5469 914.719 72.0156 921.656 71.9219V83.0312C917.156 83.0312 913.641 85 911.109 88.9375C910.078 90.625 909.562 92.1719 909.562 93.5781V103.141H941.062V93.5781C941.062 89.3594 938.906 86.2656 934.594 84.2969C932.625 83.3594 930.609 82.8906 928.547 82.8906V71.9219C935.016 71.9219 940.781 74.2188 945.844 78.8125C950.062 82.8438 952.219 87.2969 952.312 92.1719V114.531H909.562V127.188C909.562 129.812 911.062 132.25 914.062 134.5C916.5 136.188 919.078 137.031 921.797 137.031V148C913.266 148 906.562 144.531 901.688 137.594C899.062 133.938 897.75 130.469 897.75 127.188ZM928.547 148V136.891C934.172 136.891 938.391 134.453 941.203 129.578C941.766 128.547 942.188 127.562 942.469 126.625L952.453 130.281C950.766 136.75 946.922 141.625 940.922 144.906C937.078 146.969 932.953 148 928.547 148Z" fill="#56CCF2"/>
<rect x="195" y="169" width="752" height="2" fill="#7A7878"/>
</svg>
